<mxfile host="Electron" agent="Mozilla/5.0 (Windows NT 10.0; Win64; x64) AppleWebKit/537.36 (KHTML, like Gecko) draw.io/24.7.8 Chrome/128.0.6613.36 Electron/32.0.1 Safari/537.36" version="24.7.8">
  <diagram name="Page-1" id="GD_yTMIgneu08puWnrFS">
    <mxGraphModel dx="2350" dy="1764" grid="1" gridSize="10" guides="1" tooltips="1" connect="1" arrows="1" fold="1" page="1" pageScale="1" pageWidth="850" pageHeight="1100" math="0" shadow="0">
      <root>
        <mxCell id="0" />
        <mxCell id="1" parent="0" />
        <mxCell id="inXABtditka_ULVfDLAv-4" value="Diagram 0" style="swimlane;whiteSpace=wrap;html=1;" vertex="1" parent="1">
          <mxGeometry x="-850" width="980" height="590" as="geometry" />
        </mxCell>
        <mxCell id="MaOenqcY2Du_6bEz6hwa-1" value="1" style="swimlane;fontStyle=0;childLayout=stackLayout;horizontal=1;startSize=20;fillColor=#fff2cc;horizontalStack=0;resizeParent=1;resizeParentMax=0;resizeLast=0;collapsible=0;marginBottom=0;swimlaneFillColor=#ffffff;rounded=1;strokeColor=#d6b656;arcSize=20;" parent="inXABtditka_ULVfDLAv-4" vertex="1">
          <mxGeometry x="330" y="50" width="100" height="80" as="geometry" />
        </mxCell>
        <mxCell id="MaOenqcY2Du_6bEz6hwa-2" value="Level Load" style="text;html=1;align=center;verticalAlign=middle;whiteSpace=wrap;rounded=0;" parent="MaOenqcY2Du_6bEz6hwa-1" vertex="1">
          <mxGeometry y="20" width="100" height="40" as="geometry" />
        </mxCell>
        <mxCell id="MaOenqcY2Du_6bEz6hwa-3" value="&amp;nbsp;" style="text;html=1;align=center;verticalAlign=middle;whiteSpace=wrap;rounded=1;fillColor=#fff2cc;strokeColor=#d6b656;arcSize=13;" parent="MaOenqcY2Du_6bEz6hwa-1" vertex="1">
          <mxGeometry y="60" width="100" height="20" as="geometry" />
        </mxCell>
        <mxCell id="MaOenqcY2Du_6bEz6hwa-4" value="" style="endArrow=none;html=1;rounded=0;exitX=0;exitY=0;exitDx=0;exitDy=0;entryX=1;entryY=0;entryDx=0;entryDy=0;fillColor=#fff2cc;strokeColor=#d6b656;" parent="MaOenqcY2Du_6bEz6hwa-1" source="MaOenqcY2Du_6bEz6hwa-3" target="MaOenqcY2Du_6bEz6hwa-3" edge="1">
          <mxGeometry width="50" height="50" relative="1" as="geometry">
            <mxPoint x="40" y="155" as="sourcePoint" />
            <mxPoint x="90" y="105" as="targetPoint" />
          </mxGeometry>
        </mxCell>
        <mxCell id="MaOenqcY2Du_6bEz6hwa-6" style="edgeStyle=orthogonalEdgeStyle;rounded=0;orthogonalLoop=1;jettySize=auto;html=1;exitX=0.988;exitY=0.072;exitDx=0;exitDy=0;entryX=0;entryY=0.5;entryDx=0;entryDy=0;exitPerimeter=0;" parent="inXABtditka_ULVfDLAv-4" source="MaOenqcY2Du_6bEz6hwa-5" target="MaOenqcY2Du_6bEz6hwa-2" edge="1">
          <mxGeometry relative="1" as="geometry">
            <Array as="points">
              <mxPoint x="149" y="90" />
            </Array>
          </mxGeometry>
        </mxCell>
        <mxCell id="MaOenqcY2Du_6bEz6hwa-7" value="Selects Level" style="edgeLabel;html=1;align=center;verticalAlign=middle;resizable=0;points=[];" parent="MaOenqcY2Du_6bEz6hwa-6" vertex="1" connectable="0">
          <mxGeometry x="0.0178" y="1" relative="1" as="geometry">
            <mxPoint y="-11" as="offset" />
          </mxGeometry>
        </mxCell>
        <mxCell id="MaOenqcY2Du_6bEz6hwa-42" style="edgeStyle=orthogonalEdgeStyle;rounded=0;orthogonalLoop=1;jettySize=auto;html=1;exitX=1.02;exitY=0.291;exitDx=0;exitDy=0;entryX=0;entryY=0.5;entryDx=0;entryDy=0;exitPerimeter=0;" parent="inXABtditka_ULVfDLAv-4" source="MaOenqcY2Du_6bEz6hwa-5" target="MaOenqcY2Du_6bEz6hwa-39" edge="1">
          <mxGeometry relative="1" as="geometry">
            <Array as="points">
              <mxPoint x="152" y="130" />
              <mxPoint x="240" y="130" />
              <mxPoint x="240" y="200" />
            </Array>
          </mxGeometry>
        </mxCell>
        <mxCell id="MaOenqcY2Du_6bEz6hwa-46" value="Select Tower" style="edgeLabel;html=1;align=center;verticalAlign=middle;resizable=0;points=[];" parent="MaOenqcY2Du_6bEz6hwa-42" vertex="1" connectable="0">
          <mxGeometry x="0.3557" relative="1" as="geometry">
            <mxPoint x="34" y="-10" as="offset" />
          </mxGeometry>
        </mxCell>
        <mxCell id="MaOenqcY2Du_6bEz6hwa-55" style="edgeStyle=orthogonalEdgeStyle;rounded=0;orthogonalLoop=1;jettySize=auto;html=1;exitX=1;exitY=0.5;exitDx=0;exitDy=0;entryX=0;entryY=0;entryDx=0;entryDy=0;" parent="inXABtditka_ULVfDLAv-4" source="MaOenqcY2Du_6bEz6hwa-5" target="MaOenqcY2Du_6bEz6hwa-48" edge="1">
          <mxGeometry relative="1" as="geometry">
            <Array as="points">
              <mxPoint x="150" y="240" />
              <mxPoint x="240" y="240" />
              <mxPoint x="240" y="280" />
            </Array>
          </mxGeometry>
        </mxCell>
        <mxCell id="MaOenqcY2Du_6bEz6hwa-56" value="Clicks Start Round" style="edgeLabel;html=1;align=center;verticalAlign=middle;resizable=0;points=[];" parent="MaOenqcY2Du_6bEz6hwa-55" vertex="1" connectable="0">
          <mxGeometry x="0.2851" y="-1" relative="1" as="geometry">
            <mxPoint x="-39" y="-42" as="offset" />
          </mxGeometry>
        </mxCell>
        <mxCell id="MaOenqcY2Du_6bEz6hwa-5" value="Player" style="html=1;dashed=0;whiteSpace=wrap;" parent="inXABtditka_ULVfDLAv-4" vertex="1">
          <mxGeometry x="40" y="60" width="110" height="250" as="geometry" />
        </mxCell>
        <mxCell id="MaOenqcY2Du_6bEz6hwa-59" style="edgeStyle=orthogonalEdgeStyle;rounded=0;orthogonalLoop=1;jettySize=auto;html=1;exitX=0;exitY=0.5;exitDx=0;exitDy=0;entryX=1;entryY=0.75;entryDx=0;entryDy=0;" parent="inXABtditka_ULVfDLAv-4" source="MaOenqcY2Du_6bEz6hwa-24" target="MaOenqcY2Du_6bEz6hwa-48" edge="1">
          <mxGeometry relative="1" as="geometry">
            <mxPoint x="480" y="370" as="targetPoint" />
            <Array as="points">
              <mxPoint x="630" y="275" />
              <mxPoint x="630" y="317" />
            </Array>
          </mxGeometry>
        </mxCell>
        <mxCell id="MaOenqcY2Du_6bEz6hwa-60" value="Level Difficultly Table" style="edgeLabel;html=1;align=center;verticalAlign=middle;resizable=0;points=[];" parent="MaOenqcY2Du_6bEz6hwa-59" vertex="1" connectable="0">
          <mxGeometry x="0.5956" y="1" relative="1" as="geometry">
            <mxPoint x="19" y="-9" as="offset" />
          </mxGeometry>
        </mxCell>
        <mxCell id="MaOenqcY2Du_6bEz6hwa-24" value="Game Save Data" style="html=1;dashed=0;whiteSpace=wrap;" parent="inXABtditka_ULVfDLAv-4" vertex="1">
          <mxGeometry x="840" y="60" width="110" height="230" as="geometry" />
        </mxCell>
        <mxCell id="MaOenqcY2Du_6bEz6hwa-29" style="edgeStyle=orthogonalEdgeStyle;rounded=0;orthogonalLoop=1;jettySize=auto;html=1;entryX=1;entryY=0.5;entryDx=0;entryDy=0;exitX=0;exitY=0;exitDx=0;exitDy=0;" parent="inXABtditka_ULVfDLAv-4" source="MaOenqcY2Du_6bEz6hwa-24" target="MaOenqcY2Du_6bEz6hwa-2" edge="1">
          <mxGeometry relative="1" as="geometry">
            <mxPoint x="740" y="90" as="sourcePoint" />
            <mxPoint x="480" y="305" as="targetPoint" />
            <Array as="points">
              <mxPoint x="840" y="90" />
            </Array>
          </mxGeometry>
        </mxCell>
        <mxCell id="MaOenqcY2Du_6bEz6hwa-30" value="Level Data" style="edgeLabel;html=1;align=center;verticalAlign=middle;resizable=0;points=[];" parent="MaOenqcY2Du_6bEz6hwa-29" vertex="1" connectable="0">
          <mxGeometry x="-0.0709" y="-2" relative="1" as="geometry">
            <mxPoint x="-7" y="-11" as="offset" />
          </mxGeometry>
        </mxCell>
        <mxCell id="MaOenqcY2Du_6bEz6hwa-35" value="" style="swimlane;startSize=0;fillColor=#f5f5f5;gradientColor=#b3b3b3;strokeColor=#666666;" parent="inXABtditka_ULVfDLAv-4" vertex="1">
          <mxGeometry x="520" y="100" width="200" height="40" as="geometry" />
        </mxCell>
        <mxCell id="MaOenqcY2Du_6bEz6hwa-36" value="" style="rounded=0;whiteSpace=wrap;html=1;fillColor=#f5f5f5;gradientColor=#b3b3b3;strokeColor=#666666;" parent="MaOenqcY2Du_6bEz6hwa-35" vertex="1">
          <mxGeometry width="50" height="40" as="geometry" />
        </mxCell>
        <mxCell id="MaOenqcY2Du_6bEz6hwa-37" value="Current Level Data" style="text;html=1;align=center;verticalAlign=middle;whiteSpace=wrap;rounded=0;" parent="MaOenqcY2Du_6bEz6hwa-35" vertex="1">
          <mxGeometry x="50" width="150" height="40" as="geometry" />
        </mxCell>
        <mxCell id="MaOenqcY2Du_6bEz6hwa-34" style="edgeStyle=orthogonalEdgeStyle;rounded=0;orthogonalLoop=1;jettySize=auto;html=1;entryX=0;entryY=0.5;entryDx=0;entryDy=0;" parent="inXABtditka_ULVfDLAv-4" source="MaOenqcY2Du_6bEz6hwa-3" target="MaOenqcY2Du_6bEz6hwa-36" edge="1">
          <mxGeometry relative="1" as="geometry">
            <mxPoint x="380" y="240" as="targetPoint" />
          </mxGeometry>
        </mxCell>
        <mxCell id="MaOenqcY2Du_6bEz6hwa-38" value="2" style="swimlane;fontStyle=0;childLayout=stackLayout;horizontal=1;startSize=20;fillColor=#fff2cc;horizontalStack=0;resizeParent=1;resizeParentMax=0;resizeLast=0;collapsible=0;marginBottom=0;swimlaneFillColor=#ffffff;rounded=1;strokeColor=#d6b656;arcSize=20;" parent="inXABtditka_ULVfDLAv-4" vertex="1">
          <mxGeometry x="330" y="160" width="100" height="80" as="geometry" />
        </mxCell>
        <mxCell id="MaOenqcY2Du_6bEz6hwa-39" value="Purchace Tower" style="text;html=1;align=center;verticalAlign=middle;whiteSpace=wrap;rounded=0;" parent="MaOenqcY2Du_6bEz6hwa-38" vertex="1">
          <mxGeometry y="20" width="100" height="40" as="geometry" />
        </mxCell>
        <mxCell id="MaOenqcY2Du_6bEz6hwa-40" value="&amp;nbsp;" style="text;html=1;align=center;verticalAlign=middle;whiteSpace=wrap;rounded=1;fillColor=#fff2cc;strokeColor=#d6b656;arcSize=13;" parent="MaOenqcY2Du_6bEz6hwa-38" vertex="1">
          <mxGeometry y="60" width="100" height="20" as="geometry" />
        </mxCell>
        <mxCell id="MaOenqcY2Du_6bEz6hwa-41" value="" style="endArrow=none;html=1;rounded=0;exitX=0;exitY=0;exitDx=0;exitDy=0;entryX=1;entryY=0;entryDx=0;entryDy=0;fillColor=#fff2cc;strokeColor=#d6b656;" parent="MaOenqcY2Du_6bEz6hwa-38" source="MaOenqcY2Du_6bEz6hwa-40" target="MaOenqcY2Du_6bEz6hwa-40" edge="1">
          <mxGeometry width="50" height="50" relative="1" as="geometry">
            <mxPoint x="40" y="155" as="sourcePoint" />
            <mxPoint x="90" y="105" as="targetPoint" />
          </mxGeometry>
        </mxCell>
        <mxCell id="MaOenqcY2Du_6bEz6hwa-44" style="edgeStyle=orthogonalEdgeStyle;rounded=0;orthogonalLoop=1;jettySize=auto;html=1;exitX=0.25;exitY=1;exitDx=0;exitDy=0;entryX=1;entryY=0.5;entryDx=0;entryDy=0;" parent="inXABtditka_ULVfDLAv-4" source="MaOenqcY2Du_6bEz6hwa-36" target="MaOenqcY2Du_6bEz6hwa-39" edge="1">
          <mxGeometry relative="1" as="geometry" />
        </mxCell>
        <mxCell id="MaOenqcY2Du_6bEz6hwa-45" value="Game State Data" style="edgeLabel;html=1;align=center;verticalAlign=middle;resizable=0;points=[];" parent="MaOenqcY2Du_6bEz6hwa-44" vertex="1" connectable="0">
          <mxGeometry x="0.2896" y="-3" relative="1" as="geometry">
            <mxPoint x="-8" y="-7" as="offset" />
          </mxGeometry>
        </mxCell>
        <mxCell id="MaOenqcY2Du_6bEz6hwa-47" value="3" style="swimlane;fontStyle=0;childLayout=stackLayout;horizontal=1;startSize=20;fillColor=#fff2cc;horizontalStack=0;resizeParent=1;resizeParentMax=0;resizeLast=0;collapsible=0;marginBottom=0;swimlaneFillColor=#ffffff;rounded=1;strokeColor=#d6b656;arcSize=20;" parent="inXABtditka_ULVfDLAv-4" vertex="1">
          <mxGeometry x="330" y="260" width="100" height="90" as="geometry" />
        </mxCell>
        <mxCell id="MaOenqcY2Du_6bEz6hwa-48" value="Start Round" style="text;html=1;align=center;verticalAlign=middle;whiteSpace=wrap;rounded=0;fillColor=#fff2cc;strokeColor=#d6b656;" parent="MaOenqcY2Du_6bEz6hwa-47" vertex="1">
          <mxGeometry y="20" width="100" height="50" as="geometry" />
        </mxCell>
        <mxCell id="MaOenqcY2Du_6bEz6hwa-49" value="&amp;nbsp;" style="text;html=1;align=center;verticalAlign=middle;whiteSpace=wrap;rounded=1;fillColor=#fff2cc;strokeColor=#d6b656;arcSize=13;" parent="MaOenqcY2Du_6bEz6hwa-47" vertex="1">
          <mxGeometry y="70" width="100" height="20" as="geometry" />
        </mxCell>
        <mxCell id="MaOenqcY2Du_6bEz6hwa-50" value="" style="endArrow=none;html=1;rounded=0;exitX=0;exitY=0;exitDx=0;exitDy=0;entryX=1;entryY=0;entryDx=0;entryDy=0;fillColor=#fff2cc;strokeColor=#d6b656;" parent="MaOenqcY2Du_6bEz6hwa-47" source="MaOenqcY2Du_6bEz6hwa-49" target="MaOenqcY2Du_6bEz6hwa-49" edge="1">
          <mxGeometry width="50" height="50" relative="1" as="geometry">
            <mxPoint x="40" y="155" as="sourcePoint" />
            <mxPoint x="90" y="105" as="targetPoint" />
          </mxGeometry>
        </mxCell>
        <mxCell id="MaOenqcY2Du_6bEz6hwa-51" style="edgeStyle=orthogonalEdgeStyle;rounded=0;orthogonalLoop=1;jettySize=auto;html=1;exitX=1;exitY=1;exitDx=0;exitDy=0;entryX=0;entryY=1;entryDx=0;entryDy=0;" parent="inXABtditka_ULVfDLAv-4" source="MaOenqcY2Du_6bEz6hwa-39" target="MaOenqcY2Du_6bEz6hwa-37" edge="1">
          <mxGeometry relative="1" as="geometry">
            <Array as="points">
              <mxPoint x="570" y="220" />
            </Array>
          </mxGeometry>
        </mxCell>
        <mxCell id="MaOenqcY2Du_6bEz6hwa-52" value="Tower Data" style="edgeLabel;html=1;align=center;verticalAlign=middle;resizable=0;points=[];" parent="MaOenqcY2Du_6bEz6hwa-51" vertex="1" connectable="0">
          <mxGeometry x="-0.297" y="2" relative="1" as="geometry">
            <mxPoint x="-7" y="12" as="offset" />
          </mxGeometry>
        </mxCell>
        <mxCell id="MaOenqcY2Du_6bEz6hwa-57" style="edgeStyle=orthogonalEdgeStyle;rounded=0;orthogonalLoop=1;jettySize=auto;html=1;exitX=0.25;exitY=1;exitDx=0;exitDy=0;entryX=1;entryY=0.25;entryDx=0;entryDy=0;" parent="inXABtditka_ULVfDLAv-4" source="MaOenqcY2Du_6bEz6hwa-37" target="MaOenqcY2Du_6bEz6hwa-48" edge="1">
          <mxGeometry relative="1" as="geometry" />
        </mxCell>
        <mxCell id="MaOenqcY2Du_6bEz6hwa-58" value="Old Round Data" style="edgeLabel;html=1;align=center;verticalAlign=middle;resizable=0;points=[];" parent="MaOenqcY2Du_6bEz6hwa-57" vertex="1" connectable="0">
          <mxGeometry x="0.6414" y="-2" relative="1" as="geometry">
            <mxPoint x="1" y="-8" as="offset" />
          </mxGeometry>
        </mxCell>
        <mxCell id="MaOenqcY2Du_6bEz6hwa-61" value="5" style="swimlane;fontStyle=0;childLayout=stackLayout;horizontal=1;startSize=20;fillColor=#fff2cc;horizontalStack=0;resizeParent=1;resizeParentMax=0;resizeLast=0;collapsible=0;marginBottom=0;swimlaneFillColor=#ffffff;rounded=1;strokeColor=#d6b656;arcSize=20;" parent="inXABtditka_ULVfDLAv-4" vertex="1">
          <mxGeometry x="410" y="470" width="100" height="80" as="geometry" />
        </mxCell>
        <mxCell id="MaOenqcY2Du_6bEz6hwa-62" value="Unload Level" style="text;html=1;align=center;verticalAlign=middle;whiteSpace=wrap;rounded=0;" parent="MaOenqcY2Du_6bEz6hwa-61" vertex="1">
          <mxGeometry y="20" width="100" height="40" as="geometry" />
        </mxCell>
        <mxCell id="MaOenqcY2Du_6bEz6hwa-63" value="&amp;nbsp;" style="text;html=1;align=center;verticalAlign=middle;whiteSpace=wrap;rounded=1;fillColor=#fff2cc;strokeColor=#d6b656;arcSize=13;" parent="MaOenqcY2Du_6bEz6hwa-61" vertex="1">
          <mxGeometry y="60" width="100" height="20" as="geometry" />
        </mxCell>
        <mxCell id="MaOenqcY2Du_6bEz6hwa-64" value="" style="endArrow=none;html=1;rounded=0;exitX=0;exitY=0;exitDx=0;exitDy=0;entryX=1;entryY=0;entryDx=0;entryDy=0;fillColor=#fff2cc;strokeColor=#d6b656;" parent="MaOenqcY2Du_6bEz6hwa-61" source="MaOenqcY2Du_6bEz6hwa-63" target="MaOenqcY2Du_6bEz6hwa-63" edge="1">
          <mxGeometry width="50" height="50" relative="1" as="geometry">
            <mxPoint x="40" y="155" as="sourcePoint" />
            <mxPoint x="90" y="105" as="targetPoint" />
          </mxGeometry>
        </mxCell>
        <mxCell id="MaOenqcY2Du_6bEz6hwa-65" value="4" style="swimlane;fontStyle=0;childLayout=stackLayout;horizontal=1;startSize=20;fillColor=#fff2cc;horizontalStack=0;resizeParent=1;resizeParentMax=0;resizeLast=0;collapsible=0;marginBottom=0;swimlaneFillColor=#ffffff;rounded=1;strokeColor=#d6b656;arcSize=20;" parent="inXABtditka_ULVfDLAv-4" vertex="1">
          <mxGeometry x="240" y="400" width="100" height="80" as="geometry" />
        </mxCell>
        <mxCell id="MaOenqcY2Du_6bEz6hwa-66" value="Spawn Enemies" style="text;html=1;align=center;verticalAlign=middle;whiteSpace=wrap;rounded=0;" parent="MaOenqcY2Du_6bEz6hwa-65" vertex="1">
          <mxGeometry y="20" width="100" height="40" as="geometry" />
        </mxCell>
        <mxCell id="MaOenqcY2Du_6bEz6hwa-67" value="&amp;nbsp;" style="text;html=1;align=center;verticalAlign=middle;whiteSpace=wrap;rounded=1;fillColor=#fff2cc;strokeColor=#d6b656;arcSize=13;" parent="MaOenqcY2Du_6bEz6hwa-65" vertex="1">
          <mxGeometry y="60" width="100" height="20" as="geometry" />
        </mxCell>
        <mxCell id="MaOenqcY2Du_6bEz6hwa-68" value="" style="endArrow=none;html=1;rounded=0;exitX=0;exitY=0;exitDx=0;exitDy=0;entryX=1;entryY=0;entryDx=0;entryDy=0;fillColor=#fff2cc;strokeColor=#d6b656;" parent="MaOenqcY2Du_6bEz6hwa-65" source="MaOenqcY2Du_6bEz6hwa-67" target="MaOenqcY2Du_6bEz6hwa-67" edge="1">
          <mxGeometry width="50" height="50" relative="1" as="geometry">
            <mxPoint x="40" y="155" as="sourcePoint" />
            <mxPoint x="90" y="105" as="targetPoint" />
          </mxGeometry>
        </mxCell>
        <mxCell id="MaOenqcY2Du_6bEz6hwa-79" style="edgeStyle=orthogonalEdgeStyle;rounded=0;orthogonalLoop=1;jettySize=auto;html=1;exitX=1;exitY=0.5;exitDx=0;exitDy=0;entryX=0.456;entryY=1.045;entryDx=0;entryDy=0;entryPerimeter=0;" parent="inXABtditka_ULVfDLAv-4" source="MaOenqcY2Du_6bEz6hwa-66" target="MaOenqcY2Du_6bEz6hwa-37" edge="1">
          <mxGeometry relative="1" as="geometry" />
        </mxCell>
        <mxCell id="MaOenqcY2Du_6bEz6hwa-80" value="Enemy Stats" style="edgeLabel;html=1;align=center;verticalAlign=middle;resizable=0;points=[];" parent="MaOenqcY2Du_6bEz6hwa-79" vertex="1" connectable="0">
          <mxGeometry x="-0.714" y="1" relative="1" as="geometry">
            <mxPoint y="-9" as="offset" />
          </mxGeometry>
        </mxCell>
        <mxCell id="MaOenqcY2Du_6bEz6hwa-81" style="edgeStyle=orthogonalEdgeStyle;rounded=0;orthogonalLoop=1;jettySize=auto;html=1;exitX=1;exitY=0.5;exitDx=0;exitDy=0;entryX=0.75;entryY=1;entryDx=0;entryDy=0;" parent="inXABtditka_ULVfDLAv-4" source="MaOenqcY2Du_6bEz6hwa-49" target="MaOenqcY2Du_6bEz6hwa-37" edge="1">
          <mxGeometry relative="1" as="geometry" />
        </mxCell>
        <mxCell id="MaOenqcY2Du_6bEz6hwa-82" value="New Round Data" style="edgeLabel;html=1;align=center;verticalAlign=middle;resizable=0;points=[];" parent="MaOenqcY2Du_6bEz6hwa-81" vertex="1" connectable="0">
          <mxGeometry x="-0.5606" y="2" relative="1" as="geometry">
            <mxPoint x="51" y="-8" as="offset" />
          </mxGeometry>
        </mxCell>
        <mxCell id="MaOenqcY2Du_6bEz6hwa-83" style="edgeStyle=orthogonalEdgeStyle;rounded=0;orthogonalLoop=1;jettySize=auto;html=1;exitX=1;exitY=1;exitDx=0;exitDy=0;entryX=1;entryY=0.5;entryDx=0;entryDy=0;" parent="inXABtditka_ULVfDLAv-4" source="MaOenqcY2Du_6bEz6hwa-37" target="MaOenqcY2Du_6bEz6hwa-62" edge="1">
          <mxGeometry relative="1" as="geometry" />
        </mxCell>
        <mxCell id="MaOenqcY2Du_6bEz6hwa-84" value="Level End" style="edgeLabel;html=1;align=center;verticalAlign=middle;resizable=0;points=[];" parent="MaOenqcY2Du_6bEz6hwa-83" vertex="1" connectable="0">
          <mxGeometry x="0.495" relative="1" as="geometry">
            <mxPoint y="-10" as="offset" />
          </mxGeometry>
        </mxCell>
        <mxCell id="MaOenqcY2Du_6bEz6hwa-86" style="edgeStyle=orthogonalEdgeStyle;rounded=0;orthogonalLoop=1;jettySize=auto;html=1;exitX=0;exitY=0.5;exitDx=0;exitDy=0;" parent="inXABtditka_ULVfDLAv-4" source="MaOenqcY2Du_6bEz6hwa-62" target="MaOenqcY2Du_6bEz6hwa-5" edge="1">
          <mxGeometry relative="1" as="geometry" />
        </mxCell>
        <mxCell id="MaOenqcY2Du_6bEz6hwa-87" value="Level Select Screen" style="edgeLabel;html=1;align=center;verticalAlign=middle;resizable=0;points=[];" parent="MaOenqcY2Du_6bEz6hwa-86" vertex="1" connectable="0">
          <mxGeometry x="-0.3335" y="-1" relative="1" as="geometry">
            <mxPoint as="offset" />
          </mxGeometry>
        </mxCell>
        <mxCell id="inXABtditka_ULVfDLAv-46" value="" style="swimlane;startSize=0;fillColor=#f5f5f5;gradientColor=#b3b3b3;strokeColor=#666666;" vertex="1" parent="inXABtditka_ULVfDLAv-4">
          <mxGeometry x="110" y="320" width="160" height="40" as="geometry" />
        </mxCell>
        <mxCell id="inXABtditka_ULVfDLAv-47" value="" style="rounded=0;whiteSpace=wrap;html=1;fillColor=#f5f5f5;gradientColor=#b3b3b3;strokeColor=#666666;" vertex="1" parent="inXABtditka_ULVfDLAv-46">
          <mxGeometry width="50" height="40" as="geometry" />
        </mxCell>
        <mxCell id="inXABtditka_ULVfDLAv-48" value="&lt;span style=&quot;font-size: 11px; text-wrap: nowrap; background-color: rgb(255, 255, 255);&quot;&gt;Enemy Queue&lt;/span&gt;" style="text;html=1;align=center;verticalAlign=middle;whiteSpace=wrap;rounded=0;" vertex="1" parent="inXABtditka_ULVfDLAv-46">
          <mxGeometry x="50" width="110" height="40" as="geometry" />
        </mxCell>
        <mxCell id="inXABtditka_ULVfDLAv-49" style="edgeStyle=orthogonalEdgeStyle;rounded=0;orthogonalLoop=1;jettySize=auto;html=1;exitX=0.25;exitY=1;exitDx=0;exitDy=0;entryX=0;entryY=0.5;entryDx=0;entryDy=0;" edge="1" parent="inXABtditka_ULVfDLAv-4" source="inXABtditka_ULVfDLAv-48" target="MaOenqcY2Du_6bEz6hwa-66">
          <mxGeometry relative="1" as="geometry" />
        </mxCell>
        <mxCell id="inXABtditka_ULVfDLAv-53" value="Enemy Class" style="edgeLabel;html=1;align=center;verticalAlign=middle;resizable=0;points=[];" vertex="1" connectable="0" parent="inXABtditka_ULVfDLAv-49">
          <mxGeometry x="-0.3182" y="1" relative="1" as="geometry">
            <mxPoint as="offset" />
          </mxGeometry>
        </mxCell>
        <mxCell id="inXABtditka_ULVfDLAv-51" style="edgeStyle=orthogonalEdgeStyle;rounded=0;orthogonalLoop=1;jettySize=auto;html=1;exitX=0;exitY=0.75;exitDx=0;exitDy=0;" edge="1" parent="inXABtditka_ULVfDLAv-4" source="MaOenqcY2Du_6bEz6hwa-48" target="inXABtditka_ULVfDLAv-48">
          <mxGeometry relative="1" as="geometry" />
        </mxCell>
        <mxCell id="inXABtditka_ULVfDLAv-52" value="Enemy Class" style="edgeLabel;html=1;align=center;verticalAlign=middle;resizable=0;points=[];" vertex="1" connectable="0" parent="inXABtditka_ULVfDLAv-51">
          <mxGeometry x="-0.2283" y="-2" relative="1" as="geometry">
            <mxPoint x="-8" y="-9" as="offset" />
          </mxGeometry>
        </mxCell>
        <mxCell id="inXABtditka_ULVfDLAv-7" value="Start Round" style="swimlane;fillColor=#fff2cc;strokeColor=#d6b656;" vertex="1" parent="1">
          <mxGeometry x="-840" y="620" width="980" height="350" as="geometry" />
        </mxCell>
        <mxCell id="inXABtditka_ULVfDLAv-29" style="edgeStyle=orthogonalEdgeStyle;rounded=0;orthogonalLoop=1;jettySize=auto;html=1;exitX=0;exitY=0.5;exitDx=0;exitDy=0;entryX=1;entryY=0.75;entryDx=0;entryDy=0;" edge="1" parent="inXABtditka_ULVfDLAv-7" source="inXABtditka_ULVfDLAv-10" target="inXABtditka_ULVfDLAv-13">
          <mxGeometry relative="1" as="geometry" />
        </mxCell>
        <mxCell id="inXABtditka_ULVfDLAv-31" value="Level Difficultly Table" style="edgeLabel;html=1;align=center;verticalAlign=middle;resizable=0;points=[];" vertex="1" connectable="0" parent="inXABtditka_ULVfDLAv-29">
          <mxGeometry x="0.4829" y="-3" relative="1" as="geometry">
            <mxPoint x="2" y="-7" as="offset" />
          </mxGeometry>
        </mxCell>
        <mxCell id="inXABtditka_ULVfDLAv-10" value="Game Save Data" style="html=1;dashed=0;whiteSpace=wrap;" vertex="1" parent="inXABtditka_ULVfDLAv-7">
          <mxGeometry x="850" y="55" width="110" height="240" as="geometry" />
        </mxCell>
        <mxCell id="inXABtditka_ULVfDLAv-20" style="edgeStyle=orthogonalEdgeStyle;rounded=0;orthogonalLoop=1;jettySize=auto;html=1;exitX=1;exitY=0.25;exitDx=0;exitDy=0;entryX=0;entryY=0.25;entryDx=0;entryDy=0;" edge="1" parent="inXABtditka_ULVfDLAv-7" source="inXABtditka_ULVfDLAv-11" target="inXABtditka_ULVfDLAv-13">
          <mxGeometry relative="1" as="geometry">
            <mxPoint x="280" y="119.99999999999977" as="targetPoint" />
          </mxGeometry>
        </mxCell>
        <mxCell id="inXABtditka_ULVfDLAv-21" value="Clicks Start Round" style="edgeLabel;html=1;align=center;verticalAlign=middle;resizable=0;points=[];" vertex="1" connectable="0" parent="inXABtditka_ULVfDLAv-20">
          <mxGeometry x="-0.4497" y="2" relative="1" as="geometry">
            <mxPoint x="17" y="-11" as="offset" />
          </mxGeometry>
        </mxCell>
        <mxCell id="inXABtditka_ULVfDLAv-11" value="Player" style="html=1;dashed=0;whiteSpace=wrap;" vertex="1" parent="inXABtditka_ULVfDLAv-7">
          <mxGeometry x="20" y="50" width="110" height="250" as="geometry" />
        </mxCell>
        <mxCell id="inXABtditka_ULVfDLAv-12" value="3.1" style="swimlane;fontStyle=0;childLayout=stackLayout;horizontal=1;startSize=20;fillColor=#fff2cc;horizontalStack=0;resizeParent=1;resizeParentMax=0;resizeLast=0;collapsible=0;marginBottom=0;swimlaneFillColor=#ffffff;rounded=1;strokeColor=#d6b656;arcSize=20;" vertex="1" parent="inXABtditka_ULVfDLAv-7">
          <mxGeometry x="260" y="80" width="100" height="80" as="geometry" />
        </mxCell>
        <mxCell id="inXABtditka_ULVfDLAv-13" value="Calculate Round Dificulty" style="text;html=1;align=center;verticalAlign=middle;whiteSpace=wrap;rounded=0;" vertex="1" parent="inXABtditka_ULVfDLAv-12">
          <mxGeometry y="20" width="100" height="40" as="geometry" />
        </mxCell>
        <mxCell id="inXABtditka_ULVfDLAv-14" value="&amp;nbsp;" style="text;html=1;align=center;verticalAlign=middle;whiteSpace=wrap;rounded=1;fillColor=#fff2cc;strokeColor=#d6b656;arcSize=13;" vertex="1" parent="inXABtditka_ULVfDLAv-12">
          <mxGeometry y="60" width="100" height="20" as="geometry" />
        </mxCell>
        <mxCell id="inXABtditka_ULVfDLAv-15" value="" style="endArrow=none;html=1;rounded=0;exitX=0;exitY=0;exitDx=0;exitDy=0;entryX=1;entryY=0;entryDx=0;entryDy=0;fillColor=#fff2cc;strokeColor=#d6b656;" edge="1" parent="inXABtditka_ULVfDLAv-12" source="inXABtditka_ULVfDLAv-14" target="inXABtditka_ULVfDLAv-14">
          <mxGeometry width="50" height="50" relative="1" as="geometry">
            <mxPoint x="40" y="155" as="sourcePoint" />
            <mxPoint x="90" y="105" as="targetPoint" />
          </mxGeometry>
        </mxCell>
        <mxCell id="inXABtditka_ULVfDLAv-22" value="" style="swimlane;startSize=0;fillColor=#f5f5f5;gradientColor=#b3b3b3;strokeColor=#666666;" vertex="1" parent="inXABtditka_ULVfDLAv-7">
          <mxGeometry x="620" y="55" width="200" height="40" as="geometry" />
        </mxCell>
        <mxCell id="inXABtditka_ULVfDLAv-23" value="" style="rounded=0;whiteSpace=wrap;html=1;fillColor=#f5f5f5;gradientColor=#b3b3b3;strokeColor=#666666;" vertex="1" parent="inXABtditka_ULVfDLAv-22">
          <mxGeometry width="50" height="40" as="geometry" />
        </mxCell>
        <mxCell id="inXABtditka_ULVfDLAv-24" value="Current Level Data" style="text;html=1;align=center;verticalAlign=middle;whiteSpace=wrap;rounded=0;" vertex="1" parent="inXABtditka_ULVfDLAv-22">
          <mxGeometry x="50" width="150" height="40" as="geometry" />
        </mxCell>
        <mxCell id="inXABtditka_ULVfDLAv-25" style="edgeStyle=orthogonalEdgeStyle;rounded=0;orthogonalLoop=1;jettySize=auto;html=1;exitX=0;exitY=0.5;exitDx=0;exitDy=0;entryX=1;entryY=0;entryDx=0;entryDy=0;" edge="1" parent="inXABtditka_ULVfDLAv-7" source="inXABtditka_ULVfDLAv-23" target="inXABtditka_ULVfDLAv-13">
          <mxGeometry relative="1" as="geometry">
            <Array as="points">
              <mxPoint x="500" y="75" />
              <mxPoint x="500" y="100" />
            </Array>
          </mxGeometry>
        </mxCell>
        <mxCell id="inXABtditka_ULVfDLAv-26" value="Round Number" style="edgeLabel;html=1;align=center;verticalAlign=middle;resizable=0;points=[];" vertex="1" connectable="0" parent="inXABtditka_ULVfDLAv-25">
          <mxGeometry x="0.3567" y="-1" relative="1" as="geometry">
            <mxPoint x="-2" y="-9" as="offset" />
          </mxGeometry>
        </mxCell>
        <mxCell id="inXABtditka_ULVfDLAv-41" value="3.2" style="swimlane;fontStyle=0;childLayout=stackLayout;horizontal=1;startSize=20;fillColor=#fff2cc;horizontalStack=0;resizeParent=1;resizeParentMax=0;resizeLast=0;collapsible=0;marginBottom=0;swimlaneFillColor=#ffffff;rounded=1;strokeColor=#d6b656;arcSize=20;" vertex="1" parent="inXABtditka_ULVfDLAv-7">
          <mxGeometry x="440" y="210" width="100" height="80" as="geometry" />
        </mxCell>
        <mxCell id="inXABtditka_ULVfDLAv-42" value="Round Over" style="text;html=1;align=center;verticalAlign=middle;whiteSpace=wrap;rounded=0;" vertex="1" parent="inXABtditka_ULVfDLAv-41">
          <mxGeometry y="20" width="100" height="40" as="geometry" />
        </mxCell>
        <mxCell id="inXABtditka_ULVfDLAv-43" value="&amp;nbsp;" style="text;html=1;align=center;verticalAlign=middle;whiteSpace=wrap;rounded=1;fillColor=#fff2cc;strokeColor=#d6b656;arcSize=13;" vertex="1" parent="inXABtditka_ULVfDLAv-41">
          <mxGeometry y="60" width="100" height="20" as="geometry" />
        </mxCell>
        <mxCell id="inXABtditka_ULVfDLAv-44" value="" style="endArrow=none;html=1;rounded=0;exitX=0;exitY=0;exitDx=0;exitDy=0;entryX=1;entryY=0;entryDx=0;entryDy=0;fillColor=#fff2cc;strokeColor=#d6b656;" edge="1" parent="inXABtditka_ULVfDLAv-41" source="inXABtditka_ULVfDLAv-43" target="inXABtditka_ULVfDLAv-43">
          <mxGeometry width="50" height="50" relative="1" as="geometry">
            <mxPoint x="40" y="155" as="sourcePoint" />
            <mxPoint x="90" y="105" as="targetPoint" />
          </mxGeometry>
        </mxCell>
        <mxCell id="inXABtditka_ULVfDLAv-54" value="" style="swimlane;startSize=0;fillColor=#f5f5f5;gradientColor=#b3b3b3;strokeColor=#666666;" vertex="1" parent="inXABtditka_ULVfDLAv-7">
          <mxGeometry x="220" y="270" width="160" height="40" as="geometry" />
        </mxCell>
        <mxCell id="inXABtditka_ULVfDLAv-55" value="" style="rounded=0;whiteSpace=wrap;html=1;fillColor=#f5f5f5;gradientColor=#b3b3b3;strokeColor=#666666;" vertex="1" parent="inXABtditka_ULVfDLAv-54">
          <mxGeometry width="50" height="40" as="geometry" />
        </mxCell>
        <mxCell id="inXABtditka_ULVfDLAv-56" value="&lt;span style=&quot;font-size: 11px; text-wrap: nowrap; background-color: rgb(255, 255, 255);&quot;&gt;Enemy Queue&lt;/span&gt;" style="text;html=1;align=center;verticalAlign=middle;whiteSpace=wrap;rounded=0;" vertex="1" parent="inXABtditka_ULVfDLAv-54">
          <mxGeometry x="50" width="110" height="40" as="geometry" />
        </mxCell>
        <mxCell id="inXABtditka_ULVfDLAv-57" style="edgeStyle=orthogonalEdgeStyle;rounded=0;orthogonalLoop=1;jettySize=auto;html=1;exitX=0.5;exitY=1;exitDx=0;exitDy=0;" edge="1" parent="inXABtditka_ULVfDLAv-7" source="inXABtditka_ULVfDLAv-23">
          <mxGeometry relative="1" as="geometry">
            <mxPoint x="540" y="250" as="targetPoint" />
            <Array as="points">
              <mxPoint x="660" y="95" />
              <mxPoint x="660" y="250" />
              <mxPoint x="540" y="250" />
            </Array>
          </mxGeometry>
        </mxCell>
        <mxCell id="inXABtditka_ULVfDLAv-58" value="Enemy Stats" style="edgeLabel;html=1;align=center;verticalAlign=middle;resizable=0;points=[];" vertex="1" connectable="0" parent="inXABtditka_ULVfDLAv-57">
          <mxGeometry x="0.7319" relative="1" as="geometry">
            <mxPoint x="11" y="-10" as="offset" />
          </mxGeometry>
        </mxCell>
        <mxCell id="inXABtditka_ULVfDLAv-59" style="edgeStyle=orthogonalEdgeStyle;rounded=0;orthogonalLoop=1;jettySize=auto;html=1;exitX=1;exitY=0;exitDx=0;exitDy=0;entryX=0.135;entryY=0.967;entryDx=0;entryDy=0;entryPerimeter=0;" edge="1" parent="inXABtditka_ULVfDLAv-7" source="inXABtditka_ULVfDLAv-43" target="inXABtditka_ULVfDLAv-24">
          <mxGeometry relative="1" as="geometry">
            <Array as="points">
              <mxPoint x="690" y="270" />
              <mxPoint x="690" y="120" />
              <mxPoint x="690" y="120" />
            </Array>
          </mxGeometry>
        </mxCell>
        <mxCell id="inXABtditka_ULVfDLAv-60" value="New Round Number" style="edgeLabel;html=1;align=center;verticalAlign=middle;resizable=0;points=[];" vertex="1" connectable="0" parent="inXABtditka_ULVfDLAv-59">
          <mxGeometry x="-0.2333" y="-4" relative="1" as="geometry">
            <mxPoint x="-57" y="-14" as="offset" />
          </mxGeometry>
        </mxCell>
        <mxCell id="inXABtditka_ULVfDLAv-62" style="edgeStyle=orthogonalEdgeStyle;rounded=0;orthogonalLoop=1;jettySize=auto;html=1;exitX=0.75;exitY=1;exitDx=0;exitDy=0;entryX=0;entryY=0.5;entryDx=0;entryDy=0;" edge="1" parent="inXABtditka_ULVfDLAv-7" source="inXABtditka_ULVfDLAv-14" target="inXABtditka_ULVfDLAv-42">
          <mxGeometry relative="1" as="geometry">
            <Array as="points">
              <mxPoint x="330" y="160" />
              <mxPoint x="330" y="250" />
            </Array>
          </mxGeometry>
        </mxCell>
        <mxCell id="inXABtditka_ULVfDLAv-81" value="Round Running" style="edgeLabel;html=1;align=center;verticalAlign=middle;resizable=0;points=[];" vertex="1" connectable="0" parent="inXABtditka_ULVfDLAv-7">
          <mxGeometry x="370.42857142857156" y="235" as="geometry">
            <mxPoint x="1" y="3" as="offset" />
          </mxGeometry>
        </mxCell>
        <mxCell id="inXABtditka_ULVfDLAv-85" style="edgeStyle=orthogonalEdgeStyle;rounded=0;orthogonalLoop=1;jettySize=auto;html=1;exitX=1;exitY=0.75;exitDx=0;exitDy=0;entryX=0.25;entryY=1;entryDx=0;entryDy=0;" edge="1" parent="inXABtditka_ULVfDLAv-7" source="inXABtditka_ULVfDLAv-43">
          <mxGeometry relative="1" as="geometry">
            <mxPoint x="550" y="289.9999999999998" as="sourcePoint" />
            <mxPoint x="717.5" y="94.99999999999977" as="targetPoint" />
            <Array as="points">
              <mxPoint x="540" y="290" />
              <mxPoint x="718" y="290" />
            </Array>
          </mxGeometry>
        </mxCell>
        <mxCell id="inXABtditka_ULVfDLAv-86" value="Game Lost \ Game Won Data" style="edgeLabel;html=1;align=center;verticalAlign=middle;resizable=0;points=[];" vertex="1" connectable="0" parent="inXABtditka_ULVfDLAv-85">
          <mxGeometry x="-0.5862" y="1" relative="1" as="geometry">
            <mxPoint x="17" y="-9" as="offset" />
          </mxGeometry>
        </mxCell>
        <mxCell id="inXABtditka_ULVfDLAv-88" style="edgeStyle=orthogonalEdgeStyle;rounded=0;orthogonalLoop=1;jettySize=auto;html=1;exitX=0.25;exitY=1;exitDx=0;exitDy=0;" edge="1" parent="inXABtditka_ULVfDLAv-7" source="inXABtditka_ULVfDLAv-23">
          <mxGeometry relative="1" as="geometry">
            <mxPoint x="540" y="230" as="targetPoint" />
            <Array as="points">
              <mxPoint x="633" y="163" />
              <mxPoint x="633" y="163" />
              <mxPoint x="633" y="230" />
            </Array>
          </mxGeometry>
        </mxCell>
        <mxCell id="inXABtditka_ULVfDLAv-89" value="Player Health" style="edgeLabel;html=1;align=center;verticalAlign=middle;resizable=0;points=[];" vertex="1" connectable="0" parent="inXABtditka_ULVfDLAv-88">
          <mxGeometry x="0.429" relative="1" as="geometry">
            <mxPoint x="-23" y="-9" as="offset" />
          </mxGeometry>
        </mxCell>
        <mxCell id="inXABtditka_ULVfDLAv-90" style="edgeStyle=orthogonalEdgeStyle;rounded=0;orthogonalLoop=1;jettySize=auto;html=1;exitX=0.5;exitY=1;exitDx=0;exitDy=0;" edge="1" parent="inXABtditka_ULVfDLAv-7" source="inXABtditka_ULVfDLAv-14" target="inXABtditka_ULVfDLAv-55">
          <mxGeometry relative="1" as="geometry" />
        </mxCell>
        <mxCell id="inXABtditka_ULVfDLAv-91" value="Enemy Class" style="edgeLabel;html=1;align=center;verticalAlign=middle;resizable=0;points=[];" vertex="1" connectable="0" parent="inXABtditka_ULVfDLAv-90">
          <mxGeometry x="0.0451" y="-2" relative="1" as="geometry">
            <mxPoint x="-4" y="-13" as="offset" />
          </mxGeometry>
        </mxCell>
        <mxCell id="inXABtditka_ULVfDLAv-8" style="rounded=0;orthogonalLoop=1;jettySize=auto;html=1;entryX=0.391;entryY=0.009;entryDx=0;entryDy=0;shape=flexArrow;fillColor=#fff2cc;strokeColor=#d6b656;entryPerimeter=0;" edge="1" parent="1" source="MaOenqcY2Du_6bEz6hwa-49" target="inXABtditka_ULVfDLAv-7">
          <mxGeometry relative="1" as="geometry" />
        </mxCell>
      </root>
    </mxGraphModel>
  </diagram>
</mxfile>
